<?xml version="1.0" encoding="UTF-8"?>
<svg id="Layer_1" data-name="Layer 1" xmlns="http://www.w3.org/2000/svg" viewBox="0 0 1377.36 2502.16">
  <g id="Layer_5" data-name="Layer 5">
    <path d="M775.04,1032.82c22.3,20.73,39.02,58.12,47.82,87.1,2.61,8.62,9.19,31.12,9.64,38.94.64,11.25-3.17,23.2-2.67,34.11.64,13.99,11.86,33.18,7.28,49.32-4.94.35-3.79-.89-4.59-4.54-13.59-61.91-10.31-160.1-68.3-198.79-17.1-11.41-22.26-10.94-42.26-12-6.47-.34-16.44-2.83-21.9-2.07-1.49.21-1.6,3.34-3.31,3.6-17.99,2.76-36.21,4.26-52.49,14.2-3.14,1.92-20.39,20.11-24.66,15.49l16.1-17.98c7.87-.58,12.74-12.93,13.91-13.8,1.38-1.03,15.07,1.79,20.32.8,4.63-.87,4.76-5.98,12.67-7.31,17.1-2.89,80.35,1.69,92.46,12.94h-.02Z"/>
    <path d="M770.76,1051.08s-.07-.06-.1-.09c-9.5-11.34-25.14-14.87-33.07-15.86-.59-.07-.82.72-.29.98,13.89,6.63,31.94,8.86,48.17,49.29,5.86,14.58,11.87,36.49,17.5,60.63,3.83,7.83,7.4,14.08,11.33,21.84-8.15-42.9-19.57-94-43.54-116.78h0Z"/>
    <path d="M812.3,1212.88l4.57,31.83c0,.69,1,.8,1.16.13,3.8-15.96-.1-38.6-.37-46.04-.32-9.05-2.61-20.43-3.36-30.95-3.92-7.76-7.48-14.76-11.31-22.59"/>
    <g>
      <g>
        <path d="M655.74,1047.39c1.58-4.08-19.09,12.01-24.95,16.91-11.7,11.84-25.1,26.72-36.54,42.44-7.19,9.94-9.37,18.74-6.01,24.16,1.9,3.24,4.67,4.33,12.47,7.06,8.77,3.14,10.72,5.05,12.21,6.88,1.77,2.25,1.86,7.29.2,13.1-3.04,10.49-8.88,16.27-16.38,15.75-5-.34-8.55-3.51-9.52-8.79-.44-2.88-.39-5.52.55-9.76.34-1.53-1.29-2.61-3.25-2.13-6.33,1.58-10.87,2.88-18.23,5.36-1.25.42-2.25,1.36-2.51,2.35-1.74,6.49-2.24,10.13-2.26,13.82-.38,9.57,2.61,16.72,7.09,21.58,4.96,5.32,13.04,9.18,20.91,10.62,10.85,2,19.1-1.22,26.76-11.44,6.13-8.04.83-10.57,4.97-26.1,1.35-4.88,9.42-26.41,9.85-30.21,1.58-11.71,4.96-12.57,1.87-18.6-2.24-4.29-5.64-7.22-11.31-9.09-8.88-2.87-8.89-2.3-10.03-3.29-1.86-1.64-1.78-4.25-.05-8.07,2.85-6.27,7.92-11.82,12.07-13.36,4.38-1.64,6.14.38,5.74,7.15-.04.55,1.24,2.08,3.02,3.54,3.73,3.04,9.72,5.89,11.2-1.36.19-.94.75-2.66.66-3.46-.07-.8.26-5.69.21-6.52.18-8.77,8.92-29.23,11.28-38.54h-.02Z"/>
        <path d="M706.15,1149.51c-.61,7.39-10.27,31.61-19.81,56.14-10.1,23.72-20.07,47.73-34.37,36.07-18.53-16.19-26.41-46.13-21.55-75.07,2.2-12.9,10.34-29.08,16.52-37.87,6.56-9.59,11.1-28.15,12.71-47.9,2.22-19.29,1.52-39.78,11.66-42.63,11.67-3,27.71,25.61,33.25,51.48,6.69,26.78,2.89,50.83,1.58,59.78h0ZM691.81,1143.03c1.12-6.05,2.64-20.57.63-35.07-1.7-14.28-6.93-28.53-12.13-28.81-9.46.42-12.5,39.56-17,53.21-1.54,7.84-17.13,31.99-18.63,45.37-1.45,14.46,11.5,16.11,17.44,19.24,10.87,4.86,27.9-43.66,29.7-53.93h-.01Z"/>
        <path d="M754.39,1052.04c.93,1.16,4.01,6.08,4.23,6.82,3.81,12.22,3.62,23.84,6.62,44.54,5.01,37.09.95,67.32-1.18,98.08,0,.05,0,.09-.01.13-.84,8.49-6.5,32.95-9.79,58.07-4.49,24.25-6.62,49.16-28.17,38.58-16.26-8.71-29.87-23.23-32.74-38.6-2.34-11.29,5-31.17,6.08-40.46,1.87-15.67-2.22-11.69,9.21-45.53,1.09-4.63,2.15-9.27,3.13-13.96,2.82-13.45,5.04-27.32,5.61-42.59.38-10.42-6.12-19.48-7.62-31.07-1.25-8.81,3.16-19.02,1.36-25.96-1.64-6.27-9.11-10.98-13.91-17.54-6.43-8.73,8.84-3,10.41-2.77,3.43.39,6.02.87,9.71,1.77,1.05.26,2.05,1.33,2.46,2.67,3.22,10.78,7,23.26,9.77,43.89,4.69,37.38-1.66,65.96-7.64,94.16-4.47,15.03-10.92,51.41,3.51,59.66,12.4,6.57,18.92-37.86,21.9-46.23,0-.05.02-.09.02-.14.43-3.12.04-.98,1.74-8.05,4.73-19.01,10.68-41.46,10.09-55.15-.22-9.21-.15-27.85-1.66-38.89-2.03-15.39-6.2-21.92-8.7-30.64-.5-2.37-14.95-16.42-16.21-19.12-1.01-2.63,11.29,1.47,13.22,2.55,2.59,1.43,5.45,1.88,8.55,5.79h0Z"/>
        <path d="M792.04,1308.69c-4.93,0-8.44-.03-11.42.05-1.49.09-13.27-.45-16.21-10.48-1.38-4.84-1.87-12.86-1.86-21.5-.11-1.79,2.31-11.99,2.86-13.45.91-3.02,2.59-6.16,4.62-13.82,11.39-43.34,10.14-88.5,4.25-139.22-2.46-15.87-5.45-27.21-9.2-38.21-.92-2.66,1.32-5.19,3.22-3.58,1.6,1.35,3.18,2.78,5.15,4.6.29.27.54.64.7,1.04,5.1,12.74,7.85,20.32,12.49,40.89,9.25,49.24,8.84,89.59,9.67,137.68.03,1.22,1.27,2.28,2.79,2.38,9.02.56,14.43.56,24.57-.09,7.15-.49,11.23-1.19,15.1-2.49,2.12-.71,4.43.32,4.33,2.04-.82,15.65-3.71,31.85-6.63,46.93-.2,1.03-1.08,1.79-2.17,1.83-3.14.14-7.28,1.01-13.47,2.33-11.28,2.41-16.9,3.08-28.78,3.08h0Z"/>
      </g>
      <g>
        <path d="M610.8,1375.9c-3.13-8.32-3.56-4.59-5.55-12.2-.54-2.05.99-10.91,1.42-10.92,17.72-2.5,12.7-49,11.93-58.04.17-8.46,1.28-20.73-.8-33.57-1.34-8.5-4.11-17.31-8.75-25.19-2.81-4.8-8.74-9.12-12.77-12.81-2.95-2.7-3.82-5.17-7.42-6.97-.14-.06-.29-.13-.43-.18-7.88-2.9-11.84-4.19-19.46-6.31-4.14-1.16-6.87-1.98-9.6-2.86-1.48-.48-2.99.55-3.1,2.09-.66,10.45-1.35,20.38-1.26,34.03,2.49,48.83,18.59,85.05,37.13,123.08,5.92,10.62,10.75,18.27,15.86,25.28,3.09,4.08,17.88,14.21,21.59,18.82-5.35-9.05-14.36-22.31-18.8-34.23v-.02ZM595.01,1312.31c-4.3-1.36-6.73-2.07-10.88-3.18-.86-.23-1.46-.81-1.58-1.54-2.73-16.35-4.86-32.01-6.59-49.09-.17-1.66,1.96-2.92,3.99-2.34,3.41.96,6.1,1.79,10.25,3.14,6.84,2.28,4.79,13.72,5.81,30.79.54,8.54,5.84,13.97,4.7,17.78-1.13,3.82-2.93,5.32-5.7,4.43h0Z"/>
        <path d="M668.31,1440.8c-.74-.27-1.44-.95-1.88-1.84-3.42-7.1-8.49-16.93-14.18-35.61-5.83-20.42-5.88-25.9-7.67-31.71-1.35-4.83-2.73-7.4-4.54-8.4-.91-.5-1.64-.9-2.33-1.28-1.45-.8-3.37.64-3.3,2.5.51,12.1,1.3,19.38,4.14,32.79,2.61,11.85,5.33,19.86,8.52,27.57,1.1,2.63-.71,5.26-2.77,3.89-1.44-.96-2.88-1.98-4.64-3.28-.43-.32-.81-.82-1.05-1.39-3.98-9.54-6.75-16.49-10.6-32.95-8.96-47.89-2.57-81.79-3.4-123.89.11-11.44-.26-19.07-.9-27.14-.34-4.04,4.01-6.1,8.18-3.66,1.3.76,2.72,1.58,4.33,2.51,9.09,5.27,13.52,8.09,21.78,13.71.14.09.27.2.4.31,8.6,7.7,13.71,15.85,14.87,26.1,1.2,12.06-5.78,16.51-7.62,26.18-1.38,7.27-.67,22.87-2.31,28.15-1.61,5.24-3.16,9.5-4.77,12.66-.85,1.63-1.6,2.86-2.39,3.88-1.99,2.52-2.9,5.8-2.08,8.79,1.25,4.46,1.89,10.42,3.7,21.48,1.59,7.56,1.73,15.48,11.31,40,2.19,5.38,4.37,10.4,8.89,18.74,1.27,2.32.39,4.9-1.61,4.41-2.66-.66-4.95-1.38-8.08-2.52h0ZM645.68,1327.66c3.52,2.13,6.73-4.16,8.99-16.37,2.17-11.98,1.17-19.95-3.14-22.76-.04-.03-.08-.05-.12-.08-4.28-2.77-10.19.05-9.99,4.73.02.5,0,1-.05,1.51-.42,3.63-1.09,8.34-1.48,11.73-.55,4.78-3.22,8.4-3.77,14.51-.07.73.32,1.39.96,1.75,3.26,1.83,5.17,2.93,8.6,4.97h0Z"/>
        <path d="M697.1,1282.53c.82,2.1,3.94,5.78,4.27,6.58,1.44,3.44,2.31,4.81,1.17,8.83-1.14,4.04-6.89,10.51-8.75,16.96-1.66,6.22-3.35,12.39-4.92,18.63-5.99,24.13-10.2,49.68-1.15,82.96,3.21,11.63,6.24,18.85,9.46,25.65.94,1.96.38,3.92-1.2,3.91-2.82-.02-5.05-.19-8.15-.6-1.06-.14-2.17-1.14-2.73-2.47-3.16-7.63-6.66-16.35-10.09-29.42-3.2-12.21-4.62-23.45-4.9-33.95-.17-7.17,3.35-13.58,4.02-20.13.8-7.78-1-15.71.56-23.02,2.22-10.42,4.91-20.49,7.29-30.77,3.28-13.08,4.42-18.93,5.6-26.23.28-1.61-.04-7.58.85-8.93,1.21-1.69,4.54,4.68,5.9,5.87,1.74,1.5,1.74,3.48,2.76,6.12h.01Z"/>
        <path d="M722.54,1376.89c.08.36.16.72.24,1.07.56,2.47,4.22,2.56,4.43.13.13-1.47.29-3,.48-4.58,1.77-13.01,3.38-19.53,7.31-33.3,2.45-8.67-2.97-23.38-1.33-29.56.32-1.33,9.06,7.13,10.36,7.6,3.91,1.62,6.79,2.54,11.22,3.55,1.16.26,1.78,1.4,1.34,2.55-2.19,5.69-4.15,11.22-6.63,19.5-4.39,15.45-.32,19.24-2.97,35.09-.63,2.66-4.02,17.42-3.84,20.5-.12,2.42-.45,10.19-.21,12.83.14,2.22-.18,4.39.06,6.69.81,7.03-1.13,6.97-.3,11.36.18.88-.06,1.67-.66,2.05-2.49,1.61-4.22,2.65-6.62,3.9-1.14.6-2.94-.32-3.81-1.95-2-3.79-4.34-7.95-7.3-13.73-1.4-2.72-2.63-5.22-3.76-7.61-2.25-4.75-1.37-11.3-2.99-15.79-1.55-4.29-5.86-6.8-7.28-12.23-.71-2.75-1.39-5.7-2.02-8.91-.01-.07-.03-.14-.04-.21-.5-2.56-4.11-2.57-4.25,0-.05,1.09-.09,2.17-.12,3.24-.14,15.1.78,22.8,4.39,37.93,2.64,10.27,5.39,17.32,8.17,23.54.71,1.58.37,3.09-.81,3.39-2.53.64-4.48,1.01-7.18,1.36-1.22.16-2.74-1.03-3.39-2.65-2.61-6.57-5.78-14.48-9.01-26.63-10.15-38.75-2.17-66.6,5.71-94.95,2.71-9.1,4.79-16.11,6.56-23.51.37-1.55,2.18-2.22,3.34-1.22,3.21,2.77,5.51,4.69,9.09,7.51.56.43.83,1.17.72,1.91-.53,3.51.54,4.15.1,10.1-.19,2.52-2.02,9.22-2.17,12.13-.03.85-.06,1.71-.09,2.56-.17,5.23,1.77,7.67,1.82,12.89.04,6.06-1.57,14.95-.73,21.22.52,4.02,1.22,8.09,2.16,12.23h.01Z"/>
        <path d="M762.21,1335.35c.84-2.69-.62-5.28.38-8.45.21-.67.43-1.37.66-2.09.4-1.27,1.86-2.11,3.16-1.8,2.59.62,6.11,1.07,10.14,1.01,15.85-.43,24.71-2.08,42.7-9.06,4.57-1.82,7.93-3.48,11.07-5.26,2.28-1.3,4.72-.27,4.11,1.79-2.3,7.61-4.24,12.77-7.72,20.71-.35.8-1.18,1.51-2.17,1.88-3.81,1.42-7.54,3.03-13.94,5.45-3.97,1.49-6.19,2.24-9.67,3.28-.99.29-1.8.97-2.11,1.77-5.7,14.86-12.31,28.85-18.99,42.14-2.2,4.44-4.44,5.96-6.73,10.26-1.11,2.03-1.9,6.73-2.71,8.4-1.4,2.8-2.59,5.15-3.75,7.47-.1.19-.23.37-.39.52-.86.79-1.62,1.48-2.32,2.12-1.66,1.51-5.03-.65-4.48-2.87.49-1.97,1.02-4.14,1.66-6.67,2.82-11.34,6.17-22.25,9.83-33.3,1.06-3.15,2.41-3.68,3.47-6.87.17-.51,3.26-3.55,3.44-4.07.3-.88.68-4.94,1-5.83,1.01-2.87-1.26-2.6-.24-5.48.51-1.45-.88-2.72-2.64-2.54-2.27.24-4.19.37-7.02.49-4.49.18-6.34.27-10.14.55-1.59.11-2.75-1.14-2.34-2.49"/>
      </g>
    </g>
    <path d="M810.77,1356.24c-.45,13.11-9.58,23.89-19.81,31.32-2.77,2.01-1.91,5.46-6.99,1.88,2.64-3.98,20.53-43.72,26.8-33.2Z"/>
    <path d="M727.1,1223.93c-.61,3.25-3.06,7.19-2.04,10.86,2.36.04,3.6-2.22,5.01-4.76,1.39-2.51,9.35-32.68,11.01-38.29,6.01-20.22,6.27-37.65,6.76-59.57.34-15.27-3.26-32.97-4.5-47.8-.58-6.95-4.01-13.13-6.32-21.27-4.84-17.03-11.72-19.17-5.01-.72,4.37,12.01,6.97,29.76,8.84,42.02,1.27,8.34,2.5,25.2,1.75,36.47-2.33,35.01-10.32,55.65-15.48,83.06h-.02Z"/>
    <path d="M683.8,1109.43c3.8,24.15-5.41,49.15-17.29,68.69-2.41,3.96-1.68,8.21-4.68,8.59-2.37.3-4.26-2-3.8-4.35,3.48-17.74,14.35-87.21,25.78-72.93h-.01Z"/>
    <path d="M836.86,1181.65l6.24-7c2.24-12.42-4.5-29.41-8.57-46.45-4.55-19.05-7.01-38.16-14.84-50.96-16.76-27.39-53.27-62.36-84.47-63.58-15.59-.61-51.44-2.78-85.62,12.73-15.68,7.11-19.77,10.23-30.01,21-4.37,4.59-3.35,19.85-7.26,26.6-3.08,5.32-11.28,6.24-14.08,12.22-3.01,6.44-5.76,8.68-8.44,15.17-8.9,21.53-15.98,41.3-21.19,45.75l-12.31,10.86c-.63.56-1.56-.15-1.2-.9,5.66-11.86,15.08-42.63,21.51-49.57,13.22-14.27,10.81-21.86,24.19-43.58,9.86-16.01,25.16-35.46,41.98-44.89,6.02-3.38,12.22-6.04,18.4-8.13,5.6-1.89,11.18.43,16.61-.63,5.71-1.11,11.24-5.57,16.41-6,10.09-.83,18.83-.58,24.94-.17,28,1.91,71.35,20.02,91.63,41.3,27.44,28.79,39.92,107.05,38.18,149.87-.23,5.56,2.34,47.97-5.85,39.52,0-22.08-8.35-31.02-6.24-53.15h-.01Z"/>
    <path d="M606.55,1438.93c-28.11-23.91-50.61-50.56-61.91-83.76-3.36-9.87-14.36-40.34-15-49.28-.92-12.86-.17-25.83-.91-38.3-.95-15.99-1.19-38.31,4.37-56.69,6.17-.35,5.51,1.68,5.06,5.96-8.77,84.77,6.65,169.88,79.56,214.69,21.5,13.21,24.11,21.86,49.13,23.29,8.09.46,17.05,3.74,23.87,2.93,1.86-.22,4.02-.57,6.15-.85,22.46-2.96,39.92-15.16,60.16-26.34,3.91-2.16,25.28-37.13,30.66-31.81l-20.99,36.08c-9.83.58-13.99,13.2-15.44,14.19-1.72,1.17-14.29,8.57-20.85,9.65-5.78.95-5.89,6.78-15.76,8.22-21.35,3.12-92.85-14.98-108.11-27.96v-.02Z"/>
    <path d="M775.36,1035.15c22.3,20.73,39.02,58.12,47.82,87.1,2.61,8.62,9.19,31.12,9.64,38.94.64,11.25-3.17,23.2-2.67,34.11.64,13.99,11.86,33.18,7.28,49.32-4.94.35-3.79-.89-4.59-4.54-13.59-61.91-10.31-160.1-68.3-198.79-17.1-11.41-22.26-10.94-42.26-12-6.47-.34-16.44-2.83-21.9-2.07-1.49.21-1.6,3.34-3.31,3.6-17.99,2.76-36.21,4.26-52.49,14.2-3.14,1.92-20.39,20.11-24.66,15.49l16.1-17.98c7.87-.58,12.74-12.93,13.91-13.8,1.38-1.03,15.07,1.79,20.32.8,4.63-.87,4.76-5.98,12.67-7.31,17.1-2.89,80.35,1.69,92.46,12.94h-.02Z"/>
    <path d="M771.08,1053.41s-.07-.06-.1-.09c-9.5-11.34-25.14-14.87-33.07-15.86-.59-.07-.82.72-.29.98,13.89,6.63,31.94,8.86,48.17,49.29,5.86,14.58,11.87,36.49,17.5,60.63,3.83,7.83,7.4,14.08,11.33,21.84-8.15-42.9-19.57-94-43.54-116.78h0Z"/>
    <path d="M812.62,1215.21l4.57,31.83c0,.69,1,.8,1.16.13,3.8-15.96-.1-38.6-.37-46.04-.32-9.05-2.61-20.43-3.36-30.95-3.92-7.76-7.48-14.76-11.31-22.59"/>
    <path d="M583.76,1374.44c10.11,19.81,38.65,47.29,57.44,58.99,16.25,10.13,27.67,8.82,43.95,15.45.5.2.54.92.06,1.17-10.76,5.48-38.98-6.96-43.85-10.25-27.98-18.89-55.44-42.38-73.36-74.51-8.15-14.6-13.96-35.15-17.59-50.54-2.66-11.28-15.21-82.31-5.98-91.21.32-.31.87-.18,1.04.24,10.35,26.15,4.99,62.32,11.42,88.55,6.05,24.67,16.04,40.9,26.87,62.1h0Z"/>
  </g>
</svg>
